<svg width="62" height="62" viewBox="0 0 62 62" fill="none" xmlns="http://www.w3.org/2000/svg">
<rect x="1" y="1" width="60" height="60" rx="30" fill="#708F7F" stroke="#708F7F" stroke-width="2"/>
<path d="M44 32C44.5523 32 45 31.5523 45 31C45 30.4477 44.5523 30 44 30L44 32ZM17.2929 30.2929C16.9024 30.6834 16.9024 31.3166 17.2929 31.7071L23.6569 38.0711C24.0474 38.4616 24.6805 38.4616 25.0711 38.0711C25.4616 37.6805 25.4616 37.0474 25.0711 36.6569L19.4142 31L25.0711 25.3431C25.4616 24.9526 25.4616 24.3195 25.0711 23.9289C24.6805 23.5384 24.0474 23.5384 23.6569 23.9289L17.2929 30.2929ZM44 30L18 30L18 32L44 32L44 30Z" fill="#F1F1F1"/>
</svg>
