<svg width="62" height="62" viewBox="0 0 62 62" fill="none" xmlns="http://www.w3.org/2000/svg">
<rect x="1" y="1" width="60" height="60" rx="30" fill="#708F7F" stroke="#708F7F" stroke-width="2"/>
<path d="M18 30C17.4477 30 17 30.4477 17 31C17 31.5523 17.4477 32 18 32V30ZM44.7071 31.7071C45.0976 31.3166 45.0976 30.6834 44.7071 30.2929L38.3431 23.9289C37.9526 23.5384 37.3195 23.5384 36.9289 23.9289C36.5384 24.3195 36.5384 24.9526 36.9289 25.3431L42.5858 31L36.9289 36.6569C36.5384 37.0474 36.5384 37.6805 36.9289 38.0711C37.3195 38.4616 37.9526 38.4616 38.3431 38.0711L44.7071 31.7071ZM18 32L44 32V30L18 30V32Z" fill="#F1F1F1"/>
</svg>
